<svg xmlns="http://www.w3.org/2000/svg" version="1.1" xmlns:xlink="http://www.w3.org/1999/xlink" viewBox="0 0 700 700" style="overflow: hidden; display: block;" width="700" height="700"><defs></defs><g id="two-0" transform="matrix(1 0 0 1 0 0)" opacity="1"><path transform="matrix(1 0 0 1 350 350)" id="two-1042" d="M 329.169389 113.003993 C 315.843968 150.98708 249.886882 143.557387 223.52296 173.974903 C 199.250561 201.979312 212.350159 257.285643 181.775303 278.227814 C 151.551792 298.929332 107.018538 274.162762 70.771653 279.470937 C 38.085015 284.257732 5.797344 317.829256 -25.447023 307.099896 C -61.59543 294.686482 -58.301805 228.03769 -93.644323 213.487552 C -130.999918 198.108651 -175.96264 245.136543 -214.495039 233.003724 C -248.424484 222.320252 -271.493664 187.110109 -291.865844 157.949895 C -312.904319 127.835962 -337.991967 92.9871 -337.156761 56.261512 C -336.285331 17.943091 -302.108087 -13.217876 -285.12712 -47.579301 C -271.391952 -75.372767 -264.801332 -109.069603 -243.96946 -132.02967 C -223.616708 -154.46167 -185.264283 -156.887235 -165.74934 -180.05178 C -142.044184 -208.190175 -152.216312 -259.515348 -124.394843 -283.591676 C -99.006244 -305.562628 -58.506557 -301.383917 -25.469622 -307.372623 C 9.41908 -313.697004 47.596558 -331.935173 81.168445 -320.526943 C 115.389885 -308.897986 128.395902 -262.580553 159.194518 -243.665351 C 191.086623 -224.078574 240.654149 -234.45389 266.720067 -207.596562 C 291.959896 -181.590403 295.57241 -138.6016 298.51689 -102.480978 C 301.28838 -68.48246 280.898938 -33.862953 285.007574 -0.000001 C 289.830045 39.746322 342.423664 75.223701 329.169389 113.003993 Z " fill="#fff" stroke="undefined" stroke-width="1" stroke-opacity="1" fill-opacity="1" visibility="visible" stroke-linecap="butt" stroke-linejoin="miter" stroke-miterlimit="4"></path></g></svg>